<?xml version="1.0" encoding="UTF-8"?>
<!DOCTYPE svg PUBLIC "-//W3C//DTD SVG 1.1//EN" "http://www.w3.org/Graphics/SVG/1.1/DTD/svg11.dtd">
<!-- Creator: CorelDRAW X7 -->
<svg xmlns="http://www.w3.org/2000/svg" xml:space="preserve" width="40mm" height="40mm" version="1.1" style="shape-rendering:geometricPrecision; text-rendering:geometricPrecision; image-rendering:optimizeQuality; fill-rule:evenodd; clip-rule:evenodd"
viewBox="0 0 4000 4000"
 xmlns:xlink="http://www.w3.org/1999/xlink">
 <defs>
  <style type="text/css">
   <![CDATA[
    .str1 {stroke:white;stroke-width:88.19}
    .str0 {stroke:white;stroke-width:10}
    .fil2 {fill:none}
    .fil0 {fill:#D5A94A}
    .fil1 {fill:white;fill-rule:nonzero}
   ]]>
  </style>
 </defs>
 <g id="Camada_x0020_1">
  <metadata id="CorelCorpID_0Corel-Layer"/>
  <g id="_2173661232064">
   <circle class="fil0" cx="2000" cy="2000" r="2000"/>
   <path class="fil1 str0" d="M2802 3237c0,27 -14,41 -40,41 -165,0 -315,-47 -451,-140 -137,-93 -235,-217 -295,-370l-16 0c-223,2 -413,-75 -569,-231 -155,-157 -233,-347 -233,-572 0,-222 79,-411 235,-568 157,-156 346,-235 567,-235 221,0 410,79 567,235 156,157 235,346 235,568 0,201 -67,378 -201,530 -134,153 -301,241 -501,266 58,132 146,238 267,317 120,79 251,118 395,118 26,0 40,14 40,41zm-79 -1269c0,-200 -71,-371 -212,-512 -141,-141 -311,-212 -511,-212 -199,0 -370,70 -511,211 -141,141 -212,312 -212,511 0,197 70,366 209,507 139,141 307,213 505,216 -20,-70 -30,-142 -30,-215 0,-27 13,-40 39,-40 26,0 39,14 39,40 0,74 11,145 32,215 184,-18 339,-96 464,-235 125,-138 188,-300 188,-486z"/>
   <path class="fil2 str1" d="M2000 3607c-887,0 -1607,-720 -1607,-1607 0,-887 720,-1607 1607,-1607 887,0 1607,720 1607,1607"/>
  </g>
 </g>
</svg>
